<svg width="237" height="136" viewBox="0 0 237 136" fill="none" xmlns="http://www.w3.org/2000/svg">
<mask id="path-1-outside-1_83_35" maskUnits="userSpaceOnUse" x="38" y="29" width="163" height="36" fill="black">
<rect fill="white" x="38" y="29" width="163" height="36"/>
<path d="M76.565 31.41V63H68.87V44.055L61.805 63H55.595L48.485 44.01V63H40.79V31.41H49.88L58.745 53.28L67.52 31.41H76.565ZM101.764 57.42H89.9736L88.0836 63H80.0286L91.4586 31.41H100.369L111.799 63H103.654L101.764 57.42ZM99.7836 51.48L95.8686 39.915L91.9986 51.48H99.7836ZM142.637 31.41V63H134.942V49.995H122.972V63H115.277V31.41H122.972V43.785H134.942V31.41H142.637ZM188.648 63L182.078 51.075H180.233V63H172.538V31.41H185.453C187.943 31.41 190.058 31.845 191.798 32.715C193.568 33.585 194.888 34.785 195.758 36.315C196.628 37.815 197.063 39.495 197.063 41.355C197.063 43.455 196.463 45.33 195.263 46.98C194.093 48.63 192.353 49.8 190.043 50.49L197.333 63H188.648ZM180.233 45.63H185.003C186.413 45.63 187.463 45.285 188.153 44.595C188.873 43.905 189.233 42.93 189.233 41.67C189.233 40.47 188.873 39.525 188.153 38.835C187.463 38.145 186.413 37.8 185.003 37.8H180.233V45.63Z"/>
<path d="M155.887 37.575V43.965H166.192V49.905H155.887V56.835H167.542V63H148.192V31.41H167.542V37.575H155.887Z"/>
</mask>
<path d="M76.565 31.41V63H68.87V44.055L61.805 63H55.595L48.485 44.01V63H40.79V31.41H49.88L58.745 53.28L67.52 31.41H76.565ZM101.764 57.42H89.9736L88.0836 63H80.0286L91.4586 31.41H100.369L111.799 63H103.654L101.764 57.42ZM99.7836 51.48L95.8686 39.915L91.9986 51.48H99.7836ZM142.637 31.41V63H134.942V49.995H122.972V63H115.277V31.41H122.972V43.785H134.942V31.41H142.637ZM188.648 63L182.078 51.075H180.233V63H172.538V31.41H185.453C187.943 31.41 190.058 31.845 191.798 32.715C193.568 33.585 194.888 34.785 195.758 36.315C196.628 37.815 197.063 39.495 197.063 41.355C197.063 43.455 196.463 45.33 195.263 46.98C194.093 48.63 192.353 49.8 190.043 50.49L197.333 63H188.648ZM180.233 45.63H185.003C186.413 45.63 187.463 45.285 188.153 44.595C188.873 43.905 189.233 42.93 189.233 41.67C189.233 40.47 188.873 39.525 188.153 38.835C187.463 38.145 186.413 37.8 185.003 37.8H180.233V45.63Z" fill="white"/>
<path d="M155.887 37.575V43.965H166.192V49.905H155.887V56.835H167.542V63H148.192V31.41H167.542V37.575H155.887Z" fill="url(#paint0_linear_83_35)"/>
<path d="M76.565 31.41H78.565V29.41H76.565V31.41ZM76.565 63V65H78.565V63H76.565ZM68.87 63H66.87V65H68.87V63ZM68.87 44.055H70.87L66.9961 43.3562L68.87 44.055ZM61.805 63V65H63.1937L63.6789 63.6988L61.805 63ZM55.595 63L53.722 63.7013L54.2082 65H55.595V63ZM48.485 44.01L50.358 43.3087L46.485 44.01H48.485ZM48.485 63V65H50.485V63H48.485ZM40.79 63H38.79V65H40.79V63ZM40.79 31.41V29.41H38.79V31.41H40.79ZM49.88 31.41L51.7335 30.6587L51.2274 29.41H49.88V31.41ZM58.745 53.28L56.8915 54.0313L58.7545 58.6273L60.6012 54.0248L58.745 53.28ZM67.52 31.41V29.41H66.1675L65.6638 30.6652L67.52 31.41ZM74.565 31.41V63H78.565V31.41H74.565ZM76.565 61H68.87V65H76.565V61ZM70.87 63V44.055H66.87V63H70.87ZM66.9961 43.3562L59.9311 62.3012L63.6789 63.6988L70.7439 44.7538L66.9961 43.3562ZM61.805 61H55.595V65H61.805V61ZM57.468 62.2987L50.358 43.3087L46.612 44.7113L53.722 63.7013L57.468 62.2987ZM46.485 44.01V63H50.485V44.01H46.485ZM48.485 61H40.79V65H48.485V61ZM42.79 63V31.41H38.79V63H42.79ZM40.79 33.41H49.88V29.41H40.79V33.41ZM48.0265 32.1613L56.8915 54.0313L60.5985 52.5287L51.7335 30.6587L48.0265 32.1613ZM60.6012 54.0248L69.3762 32.1548L65.6638 30.6652L56.8888 52.5352L60.6012 54.0248ZM67.52 33.41H76.565V29.41H67.52V33.41ZM101.764 57.42L103.658 56.7784L103.198 55.42H101.764V57.42ZM89.9736 57.42V55.42H88.5394L88.0793 56.7784L89.9736 57.42ZM88.0836 63V65H89.5178L89.9779 63.6416L88.0836 63ZM80.0286 63L78.1479 62.3195L77.1781 65H80.0286V63ZM91.4586 31.41V29.41H90.0554L89.5779 30.7295L91.4586 31.41ZM100.369 31.41L102.249 30.7295L101.772 29.41H100.369V31.41ZM111.799 63V65H114.649L113.679 62.3195L111.799 63ZM103.654 63L101.759 63.6416L102.219 65H103.654V63ZM99.7836 51.48V53.48H102.572L101.678 50.8387L99.7836 51.48ZM95.8686 39.915L97.763 39.2737L95.8576 33.6452L93.972 39.2803L95.8686 39.915ZM91.9986 51.48L90.102 50.8453L89.2203 53.48H91.9986V51.48ZM101.764 55.42H89.9736V59.42H101.764V55.42ZM88.0793 56.7784L86.1893 62.3584L89.9779 63.6416L91.8679 58.0616L88.0793 56.7784ZM88.0836 61H80.0286V65H88.0836V61ZM81.9093 63.6805L93.3393 32.0905L89.5779 30.7295L78.1479 62.3195L81.9093 63.6805ZM91.4586 33.41H100.369V29.41H91.4586V33.41ZM98.4879 32.0905L109.918 63.6805L113.679 62.3195L102.249 30.7295L98.4879 32.0905ZM111.799 61H103.654V65H111.799V61ZM105.548 62.3584L103.658 56.7784L99.8693 58.0616L101.759 63.6416L105.548 62.3584ZM101.678 50.8387L97.763 39.2737L93.9742 40.5563L97.8892 52.1213L101.678 50.8387ZM93.972 39.2803L90.102 50.8453L93.8952 52.1147L97.7652 40.5497L93.972 39.2803ZM91.9986 53.48H99.7836V49.48H91.9986V53.48ZM142.637 31.41H144.637V29.41H142.637V31.41ZM142.637 63V65H144.637V63H142.637ZM134.942 63H132.942V65H134.942V63ZM134.942 49.995H136.942V47.995H134.942V49.995ZM122.972 49.995V47.995H120.972V49.995H122.972ZM122.972 63V65H124.972V63H122.972ZM115.277 63H113.277V65H115.277V63ZM115.277 31.41V29.41H113.277V31.41H115.277ZM122.972 31.41H124.972V29.41H122.972V31.41ZM122.972 43.785H120.972V45.785H122.972V43.785ZM134.942 43.785V45.785H136.942V43.785H134.942ZM134.942 31.41V29.41H132.942V31.41H134.942ZM140.637 31.41V63H144.637V31.41H140.637ZM142.637 61H134.942V65H142.637V61ZM136.942 63V49.995H132.942V63H136.942ZM134.942 47.995H122.972V51.995H134.942V47.995ZM120.972 49.995V63H124.972V49.995H120.972ZM122.972 61H115.277V65H122.972V61ZM117.277 63V31.41H113.277V63H117.277ZM115.277 33.41H122.972V29.41H115.277V33.41ZM120.972 31.41V43.785H124.972V31.41H120.972ZM122.972 45.785H134.942V41.785H122.972V45.785ZM136.942 43.785V31.41H132.942V43.785H136.942ZM134.942 33.41H142.637V29.41H134.942V33.41ZM155.887 37.575V35.575H153.887V37.575H155.887ZM155.887 43.965H153.887V45.965H155.887V43.965ZM166.192 43.965H168.192V41.965H166.192V43.965ZM166.192 49.905V51.905H168.192V49.905H166.192ZM155.887 49.905V47.905H153.887V49.905H155.887ZM155.887 56.835H153.887V58.835H155.887V56.835ZM167.542 56.835H169.542V54.835H167.542V56.835ZM167.542 63V65H169.542V63H167.542ZM148.192 63H146.192V65H148.192V63ZM148.192 31.41V29.41H146.192V31.41H148.192ZM167.542 31.41H169.542V29.41H167.542V31.41ZM167.542 37.575V39.575H169.542V37.575H167.542ZM153.887 37.575V43.965H157.887V37.575H153.887ZM155.887 45.965H166.192V41.965H155.887V45.965ZM164.192 43.965V49.905H168.192V43.965H164.192ZM166.192 47.905H155.887V51.905H166.192V47.905ZM153.887 49.905V56.835H157.887V49.905H153.887ZM155.887 58.835H167.542V54.835H155.887V58.835ZM165.542 56.835V63H169.542V56.835H165.542ZM167.542 61H148.192V65H167.542V61ZM150.192 63V31.41H146.192V63H150.192ZM148.192 33.41H167.542V29.41H148.192V33.41ZM165.542 31.41V37.575H169.542V31.41H165.542ZM167.542 35.575H155.887V39.575H167.542V35.575ZM188.648 63L186.896 63.9651L187.466 65H188.648V63ZM182.078 51.075L183.83 50.1099L183.26 49.075H182.078V51.075ZM180.233 51.075V49.075H178.233V51.075H180.233ZM180.233 63V65H182.233V63H180.233ZM172.538 63H170.538V65H172.538V63ZM172.538 31.41V29.41H170.538V31.41H172.538ZM191.798 32.715L190.904 34.5039L190.916 34.5099L191.798 32.715ZM195.758 36.315L194.019 37.3036L194.024 37.311L194.028 37.3184L195.758 36.315ZM195.263 46.98L193.646 45.8037L193.639 45.8134L193.632 45.8231L195.263 46.98ZM190.043 50.49L189.471 48.5737L187.035 49.3011L188.315 51.497L190.043 50.49ZM197.333 63V65H200.813L199.061 61.993L197.333 63ZM180.233 45.63H178.233V47.63H180.233V45.63ZM188.153 44.595L186.769 43.151L186.754 43.1657L186.739 43.1808L188.153 44.595ZM188.153 38.835L186.739 40.2492L186.754 40.2643L186.769 40.279L188.153 38.835ZM180.233 37.8V35.8H178.233V37.8H180.233ZM190.4 62.0349L183.83 50.1099L180.326 52.0401L186.896 63.9651L190.4 62.0349ZM182.078 49.075H180.233V53.075H182.078V49.075ZM178.233 51.075V63H182.233V51.075H178.233ZM180.233 61H172.538V65H180.233V61ZM174.538 63V31.41H170.538V63H174.538ZM172.538 33.41H185.453V29.41H172.538V33.41ZM185.453 33.41C187.717 33.41 189.508 33.806 190.904 34.5039L192.692 30.9261C190.608 29.884 188.169 29.41 185.453 29.41V33.41ZM190.916 34.5099C192.371 35.2252 193.371 36.1633 194.019 37.3036L197.497 35.3264C196.405 33.4067 194.765 31.9448 192.68 30.9201L190.916 34.5099ZM194.028 37.3184C194.708 38.4915 195.063 39.8209 195.063 41.355H199.063C199.063 39.1691 198.548 37.1385 197.488 35.3116L194.028 37.3184ZM195.063 41.355C195.063 43.0456 194.589 44.5061 193.646 45.8037L196.881 48.1563C198.337 46.1539 199.063 43.8644 199.063 41.355H195.063ZM193.632 45.8231C192.767 47.0425 191.438 47.9861 189.471 48.5737L190.615 52.4063C193.268 51.6139 195.419 50.2175 196.895 48.1369L193.632 45.8231ZM188.315 51.497L195.605 64.007L199.061 61.993L191.771 49.483L188.315 51.497ZM197.333 61H188.648V65H197.333V61ZM180.233 47.63H185.003V43.63H180.233V47.63ZM185.003 47.63C186.707 47.63 188.363 47.2138 189.567 46.0092L186.739 43.1808C186.563 43.3562 186.119 43.63 185.003 43.63V47.63ZM189.537 46.039C190.748 44.878 191.233 43.323 191.233 41.67H187.233C187.233 42.537 186.998 42.932 186.769 43.151L189.537 46.039ZM191.233 41.67C191.233 40.0441 190.729 38.5335 189.537 37.391L186.769 40.279C187.017 40.5165 187.233 40.8959 187.233 41.67H191.233ZM189.567 37.4208C188.363 36.2162 186.707 35.8 185.003 35.8V39.8C186.119 39.8 186.563 40.0738 186.739 40.2492L189.567 37.4208ZM185.003 35.8H180.233V39.8H185.003V35.8ZM178.233 37.8V45.63H182.233V37.8H178.233Z" fill="black" fill-opacity="0.2" mask="url(#path-1-outside-1_83_35)"/>
<path d="M51.55 114C50.8833 114 50.2333 113.95 49.6 113.85C48.9667 113.783 48.4333 113.683 48 113.55L47.5 106.55C48.1667 106.717 48.75 106.833 49.25 106.9C49.75 106.967 50.2667 107 50.8 107C52.2 107 53.1667 106.617 53.7 105.85C54.2667 105.083 54.55 103.833 54.55 102.1V74.85H61.55V96H66.95V103H61.5C61.3 106.867 60.4167 109.667 58.85 111.4C57.2833 113.133 54.85 114 51.55 114ZM65.9707 96H75.8207V103H65.9707V96ZM74.8086 96H84.6586V103H74.8086V96ZM83.6465 96H93.4965V103H83.6465V96ZM92.4844 96H102.334V103H92.4844V96ZM101.322 96H107.022C106.922 95.5333 106.822 94.9833 106.722 94.35C106.622 93.6833 106.572 93.0333 106.572 92.4C106.572 88.6667 107.489 85.8167 109.322 83.85C111.156 81.85 113.689 80.85 116.922 80.85C118.422 80.85 119.806 81.1333 121.072 81.7C122.372 82.2333 123.489 83 124.422 84C125.356 85 126.072 86.2167 126.572 87.65C127.106 89.05 127.372 90.6167 127.372 92.35C127.372 92.9833 127.322 93.6333 127.222 94.3C127.156 94.9667 127.072 95.5333 126.972 96H131.522C131.656 95.1333 131.756 94.3 131.822 93.5C131.889 92.7 131.922 91.95 131.922 91.25C131.922 89.25 131.706 87.4833 131.272 85.95C130.872 84.4167 130.222 82.95 129.322 81.55C128.189 79.85 126.689 78.5667 124.822 77.7C122.989 76.8333 120.656 76.4 117.822 76.4C115.722 76.4 113.756 76.75 111.922 77.45C110.122 78.15 108.556 78.8667 107.222 79.6L104.872 73.25C107.139 72.1167 109.539 71.1833 112.072 70.45C114.606 69.7167 117.122 69.35 119.622 69.35C121.456 69.35 123.139 69.55 124.672 69.95C126.206 70.35 127.589 70.9 128.822 71.6C130.089 72.3 131.206 73.1333 132.172 74.1C133.172 75.0667 134.056 76.1 134.822 77.2C136.222 79.2333 137.256 81.5333 137.922 84.1C138.589 86.6333 138.922 89.4167 138.922 92.45C138.922 93.2833 138.856 94.1667 138.722 95.1C138.622 96.0333 138.489 96.9667 138.322 97.9C138.156 98.8333 137.956 99.75 137.722 100.65C137.522 101.517 137.306 102.3 137.072 103H101.322V96ZM112.822 92.25C112.822 92.9833 112.856 93.6833 112.922 94.35C113.022 94.9833 113.106 95.5333 113.172 96H120.772C120.839 95.5333 120.906 94.9833 120.972 94.35C121.072 93.6833 121.122 92.9833 121.122 92.25C121.122 90.65 120.756 89.4 120.022 88.5C119.289 87.5667 118.256 87.1 116.922 87.1C115.522 87.1 114.489 87.5667 113.822 88.5C113.156 89.4 112.822 90.65 112.822 92.25Z" fill="white"/>
<path d="M148.105 62.45H155.105V96H161.505V103H148.105V62.45ZM160.502 96H165.352C165.219 95.5 165.119 94.9833 165.052 94.45C165.019 93.9167 165.002 93.3667 165.002 92.8C165.002 90.6667 165.385 88.6833 166.152 86.85C166.952 84.9833 168.019 83.3667 169.352 82C170.719 80.6 172.302 79.5 174.102 78.7C175.935 77.9 177.885 77.5 179.952 77.5C182.052 77.5 184.019 77.9 185.852 78.7C187.719 79.4667 189.335 80.5333 190.702 81.9C192.102 83.2667 193.185 84.8833 193.952 86.75C194.752 88.6167 195.152 90.6333 195.152 92.8C195.152 94.9333 194.735 96.9167 193.902 98.75C193.102 100.55 192.002 102.117 190.602 103.45C189.202 104.783 187.585 105.833 185.752 106.6C183.919 107.367 181.985 107.75 179.952 107.75C177.819 107.75 175.819 107.317 173.952 106.45C172.085 105.617 170.452 104.467 169.052 103H160.502V96ZM176.802 100.15C177.769 100.55 178.819 100.75 179.952 100.75C181.085 100.75 182.152 100.55 183.152 100.15C184.152 99.75 185.019 99.2 185.752 98.5C186.519 97.7667 187.102 96.9167 187.502 95.95C187.935 94.95 188.152 93.8667 188.152 92.7C188.152 91.5333 187.952 90.45 187.552 89.45C187.152 88.45 186.585 87.5833 185.852 86.85C185.119 86.1167 184.252 85.55 183.252 85.15C182.252 84.7167 181.152 84.5 179.952 84.5C178.785 84.5 177.719 84.7167 176.752 85.15C175.785 85.5833 174.952 86.1667 174.252 86.9C173.552 87.6333 173.002 88.5 172.602 89.5C172.202 90.5 172.002 91.5667 172.002 92.7C172.002 93.8333 172.202 94.9 172.602 95.9C173.002 96.8667 173.552 97.7167 174.252 98.45C174.985 99.15 175.835 99.7167 176.802 100.15Z" fill="url(#paint1_linear_83_35)"/>
<g filter="url(#filter0_f_83_35)">
<ellipse cx="129.806" cy="91.5" rx="69.1938" ry="6.5" fill="black" fill-opacity="0.45"/>
</g>
<g filter="url(#filter1_f_83_35)">
<ellipse cx="118.5" cy="44.5" rx="80.5" ry="6.5" fill="black" fill-opacity="0.45"/>
</g>
<defs>
<filter id="filter0_f_83_35" x="23.0124" y="47.4" width="213.588" height="88.2" filterUnits="userSpaceOnUse" color-interpolation-filters="sRGB">
<feFlood flood-opacity="0" result="BackgroundImageFix"/>
<feBlend mode="normal" in="SourceGraphic" in2="BackgroundImageFix" result="shape"/>
<feGaussianBlur stdDeviation="18.8" result="effect1_foregroundBlur_83_35"/>
</filter>
<filter id="filter1_f_83_35" x="0.400002" y="0.400002" width="236.2" height="88.2" filterUnits="userSpaceOnUse" color-interpolation-filters="sRGB">
<feFlood flood-opacity="0" result="BackgroundImageFix"/>
<feBlend mode="normal" in="SourceGraphic" in2="BackgroundImageFix" result="shape"/>
<feGaussianBlur stdDeviation="18.8" result="effect1_foregroundBlur_83_35"/>
</filter>
<linearGradient id="paint0_linear_83_35" x1="166.5" y1="32.5" x2="149" y2="63" gradientUnits="userSpaceOnUse">
<stop stop-color="#C903C0"/>
<stop offset="1" stop-color="#00CED1"/>
</linearGradient>
<linearGradient id="paint1_linear_83_35" x1="148" y1="63.5" x2="192.5" y2="103" gradientUnits="userSpaceOnUse">
<stop stop-color="#00CED1"/>
<stop offset="1" stop-color="#C903C0"/>
</linearGradient>
</defs>
</svg>
